<svg width="24" height="21" viewBox="0 0 24 21" fill="none" xmlns="http://www.w3.org/2000/svg">
<path d="M0.423911 10.0708L5.95399 12.1387L8.09447 19.0356C8.23143 19.4773 8.77055 19.6406 9.12839 19.3475L12.211 16.8297C12.5341 16.566 12.9943 16.5528 13.332 16.7984L18.8918 20.8427C19.2746 21.1214 19.8169 20.9113 19.913 20.4478L23.9858 0.819161C24.0906 0.312916 23.5942 -0.109408 23.113 0.0770271L0.417431 8.84902C-0.142649 9.06543 -0.137769 9.8599 0.423911 10.0708ZM7.74951 11.0379L18.5574 4.36864C18.7516 4.24913 18.9514 4.51228 18.7846 4.66729L9.86503 12.9743C9.55151 13.2667 9.34927 13.658 9.29199 14.0827L8.98815 16.3387C8.94791 16.6399 8.52559 16.6698 8.44263 16.3783L7.27407 12.2645C7.14023 11.7953 7.33527 11.2941 7.74951 11.0379Z" fill="#0A0A0A"/>
</svg>
