<svg width="360" height="40" viewBox="0 0 360 40" fill="none" xmlns="http://www.w3.org/2000/svg">
<path d="M14.202 25.5H11.628V17.094L8.244 25.5H7.128L3.744 17.094V25.5H1.188V13.494H4.77L7.686 20.748L10.602 13.494H14.202V25.5ZM18.7284 25.5H16.5324V16.806H18.8184V22.062L22.4004 16.806H24.7044V25.5H22.4184V20.046L18.7284 25.5ZM37.2493 25.5H31.5793V16.806H37.0873C37.9273 16.806 38.5813 17.022 39.0493 17.454C39.5173 17.886 39.7513 18.414 39.7513 19.038C39.7513 19.542 39.6133 19.968 39.3373 20.316C39.0613 20.664 38.7073 20.898 38.2753 21.018C38.7553 21.126 39.1513 21.378 39.4633 21.774C39.7753 22.17 39.9313 22.626 39.9313 23.142C39.9313 23.826 39.6913 24.39 39.2113 24.834C38.7433 25.278 38.0893 25.5 37.2493 25.5ZM36.6913 23.628C36.9673 23.628 37.1833 23.556 37.3393 23.412C37.5073 23.268 37.5913 23.07 37.5913 22.818C37.5913 22.59 37.5073 22.398 37.3393 22.242C37.1833 22.086 36.9673 22.008 36.6913 22.008H33.8653V23.628H36.6913ZM36.6193 20.136C36.8593 20.136 37.0513 20.07 37.1953 19.938C37.3513 19.794 37.4293 19.62 37.4293 19.416C37.4293 19.2 37.3573 19.026 37.2133 18.894C37.0693 18.75 36.8713 18.678 36.6193 18.678H33.8653V20.136H36.6193ZM50.7817 25.716C49.4377 25.716 48.3337 25.29 47.4697 24.438C46.6057 23.586 46.1737 22.488 46.1737 21.144C46.1737 19.812 46.6057 18.72 47.4697 17.868C48.3337 17.016 49.4377 16.59 50.7817 16.59C52.3177 16.59 53.4637 17.112 54.2197 18.156L52.7257 19.56C52.3057 18.936 51.6937 18.624 50.8897 18.624C50.1937 18.624 49.6237 18.858 49.1797 19.326C48.7477 19.782 48.5317 20.388 48.5317 21.144C48.5317 21.9 48.7477 22.512 49.1797 22.98C49.6237 23.448 50.1937 23.682 50.8897 23.682C51.6697 23.682 52.2817 23.37 52.7257 22.746L54.2197 24.132C53.4637 25.188 52.3177 25.716 50.7817 25.716ZM63.0941 24.402C62.2541 25.278 61.1381 25.716 59.7461 25.716C58.3541 25.716 57.2381 25.278 56.3981 24.402C55.5701 23.514 55.1561 22.428 55.1561 21.144C55.1561 19.86 55.5701 18.78 56.3981 17.904C57.2381 17.028 58.3541 16.59 59.7461 16.59C61.1381 16.59 62.2541 17.028 63.0941 17.904C63.9341 18.78 64.3541 19.86 64.3541 21.144C64.3541 22.428 63.9341 23.514 63.0941 24.402ZM58.1261 22.962C58.5221 23.442 59.0621 23.682 59.7461 23.682C60.4301 23.682 60.9701 23.442 61.3661 22.962C61.7741 22.47 61.9781 21.864 61.9781 21.144C61.9781 20.436 61.7741 19.842 61.3661 19.362C60.9701 18.87 60.4301 18.624 59.7461 18.624C59.0621 18.624 58.5221 18.87 58.1261 19.362C57.7301 19.842 57.5321 20.436 57.5321 21.144C57.5321 21.864 57.7301 22.47 58.1261 22.962ZM72.89 27.714V25.5H66.05V16.806H68.336V23.502H71.936V16.806H74.222V23.502H75.176V27.714H72.89ZM77.7485 15.87C77.3765 15.87 77.0525 15.738 76.7765 15.474C76.5125 15.198 76.3805 14.874 76.3805 14.502C76.3805 14.13 76.5125 13.812 76.7765 13.548C77.0525 13.284 77.3765 13.152 77.7485 13.152C78.1325 13.152 78.4565 13.284 78.7205 13.548C78.9845 13.812 79.1165 14.13 79.1165 14.502C79.1165 14.874 78.9845 15.198 78.7205 15.474C78.4565 15.738 78.1325 15.87 77.7485 15.87ZM78.9005 25.5H76.6145V16.806H78.9005V25.5ZM88.6732 25.5H86.3872V24.6C85.7632 25.344 84.8452 25.716 83.6332 25.716C82.8532 25.716 82.1512 25.464 81.5272 24.96C80.9152 24.444 80.6092 23.736 80.6092 22.836C80.6092 21.9 80.9092 21.198 81.5092 20.73C82.1212 20.262 82.8292 20.028 83.6332 20.028C84.8692 20.028 85.7872 20.382 86.3872 21.09V19.92C86.3872 19.476 86.2132 19.122 85.8652 18.858C85.5172 18.594 85.0552 18.462 84.4792 18.462C83.5312 18.462 82.6852 18.804 81.9412 19.488L81.0772 17.958C82.1092 17.046 83.3752 16.59 84.8752 16.59C85.9912 16.59 86.9032 16.848 87.6112 17.364C88.3192 17.88 88.6732 18.72 88.6732 19.884V25.5ZM84.5512 24.168C85.4032 24.168 86.0152 23.916 86.3872 23.412V22.332C86.0152 21.828 85.4032 21.576 84.5512 21.576C84.0832 21.576 83.6932 21.696 83.3812 21.936C83.0692 22.164 82.9132 22.482 82.9132 22.89C82.9132 23.286 83.0692 23.598 83.3812 23.826C83.6932 24.054 84.0832 24.168 84.5512 24.168ZM90.1306 25.716V23.844C90.4906 23.844 90.7786 23.634 90.9946 23.214C91.2106 22.782 91.3846 22.05 91.5166 21.018L92.0746 16.806H99.1126V25.5H96.8266V18.804H94.0726L93.7846 21.288C93.6046 22.812 93.2206 23.934 92.6326 24.654C92.0566 25.362 91.2226 25.716 90.1306 25.716ZM101.382 16.806H103.668V19.794H106.638C107.598 19.794 108.342 20.064 108.87 20.604C109.398 21.144 109.662 21.822 109.662 22.638C109.662 23.442 109.392 24.12 108.852 24.672C108.312 25.224 107.574 25.5 106.638 25.5H101.382V16.806ZM106.296 21.702H103.668V23.574H106.296C106.608 23.574 106.854 23.49 107.034 23.322C107.226 23.142 107.322 22.914 107.322 22.638C107.322 22.362 107.226 22.14 107.034 21.972C106.854 21.792 106.608 21.702 106.296 21.702ZM113.617 25.5H111.331V16.806H113.617V20.028H117.217V16.806H119.503V25.5H117.217V22.026H113.617V25.5ZM123.969 25.5H121.773V16.806H124.059V22.062L127.641 16.806H129.945V25.5H127.659V20.046L123.969 25.5ZM140.152 25.5H137.596L135.616 22.566L133.618 25.5H131.08L134.158 21.036L131.26 16.806H133.816L135.616 19.488L137.398 16.806H139.954L137.038 21.036L140.152 25.5ZM156.168 25.5H153.882V19.848L151.56 25.5H150.516L148.176 19.848V25.5H145.89V16.806H148.896L151.038 21.99L153.144 16.806H156.168V25.5ZM162.527 25.716C161.183 25.716 160.073 25.296 159.197 24.456C158.321 23.616 157.883 22.512 157.883 21.144C157.883 19.86 158.303 18.78 159.143 17.904C159.995 17.028 161.075 16.59 162.383 16.59C163.679 16.59 164.729 17.034 165.533 17.922C166.337 18.798 166.739 19.95 166.739 21.378V21.882H160.277C160.349 22.458 160.607 22.938 161.051 23.322C161.495 23.706 162.071 23.898 162.779 23.898C163.163 23.898 163.577 23.82 164.021 23.664C164.477 23.508 164.837 23.298 165.101 23.034L166.109 24.51C165.233 25.314 164.039 25.716 162.527 25.716ZM164.525 20.334C164.489 19.842 164.291 19.398 163.931 19.002C163.583 18.606 163.067 18.408 162.383 18.408C161.735 18.408 161.231 18.606 160.871 19.002C160.511 19.386 160.301 19.83 160.241 20.334H164.525ZM173.358 25.716C172.266 25.716 171.372 25.272 170.676 24.384V28.812H168.39V16.806H170.676V17.904C171.36 17.028 172.254 16.59 173.358 16.59C174.498 16.59 175.422 16.998 176.13 17.814C176.85 18.618 177.21 19.728 177.21 21.144C177.21 22.56 176.85 23.676 176.13 24.492C175.422 25.308 174.498 25.716 173.358 25.716ZM172.638 23.682C173.298 23.682 173.826 23.448 174.222 22.98C174.63 22.512 174.834 21.9 174.834 21.144C174.834 20.4 174.63 19.794 174.222 19.326C173.826 18.858 173.298 18.624 172.638 18.624C172.266 18.624 171.894 18.72 171.522 18.912C171.15 19.104 170.868 19.338 170.676 19.614V22.692C170.868 22.968 171.15 23.202 171.522 23.394C171.906 23.586 172.278 23.682 172.638 23.682ZM182.97 25.716C181.626 25.716 180.516 25.296 179.64 24.456C178.764 23.616 178.326 22.512 178.326 21.144C178.326 19.86 178.746 18.78 179.586 17.904C180.438 17.028 181.518 16.59 182.826 16.59C184.122 16.59 185.172 17.034 185.976 17.922C186.78 18.798 187.182 19.95 187.182 21.378V21.882H180.72C180.792 22.458 181.05 22.938 181.494 23.322C181.938 23.706 182.514 23.898 183.222 23.898C183.606 23.898 184.02 23.82 184.464 23.664C184.92 23.508 185.28 23.298 185.544 23.034L186.552 24.51C185.676 25.314 184.482 25.716 182.97 25.716ZM184.968 20.334C184.932 19.842 184.734 19.398 184.374 19.002C184.026 18.606 183.51 18.408 182.826 18.408C182.178 18.408 181.674 18.606 181.314 19.002C180.954 19.386 180.744 19.83 180.684 20.334H184.968ZM190.561 25.5H187.717L191.245 20.748L187.825 16.806H190.633L193.297 19.956V16.806H195.601V19.956L198.265 16.806H201.073L197.653 20.748L201.181 25.5H198.337L196.015 22.152L195.601 22.602V25.5H193.297V22.602L192.883 22.152L190.561 25.5ZM209.839 25.5H207.553V24.6C206.929 25.344 206.011 25.716 204.799 25.716C204.019 25.716 203.317 25.464 202.693 24.96C202.081 24.444 201.775 23.736 201.775 22.836C201.775 21.9 202.075 21.198 202.675 20.73C203.287 20.262 203.995 20.028 204.799 20.028C206.035 20.028 206.953 20.382 207.553 21.09V19.92C207.553 19.476 207.379 19.122 207.031 18.858C206.683 18.594 206.221 18.462 205.645 18.462C204.697 18.462 203.851 18.804 203.107 19.488L202.243 17.958C203.275 17.046 204.541 16.59 206.041 16.59C207.157 16.59 208.069 16.848 208.777 17.364C209.485 17.88 209.839 18.72 209.839 19.884V25.5ZM205.717 24.168C206.569 24.168 207.181 23.916 207.553 23.412V22.332C207.181 21.828 206.569 21.576 205.717 21.576C205.249 21.576 204.859 21.696 204.547 21.936C204.235 22.164 204.079 22.482 204.079 22.89C204.079 23.286 204.235 23.598 204.547 23.826C204.859 24.054 205.249 24.168 205.717 24.168ZM220.045 25.5H217.489L215.509 22.566L213.511 25.5H210.973L214.051 21.036L211.153 16.806H213.709L215.509 19.488L217.291 16.806H219.847L216.931 21.036L220.045 25.5ZM223.373 19.164C223.085 19.452 222.743 19.596 222.347 19.596C221.951 19.596 221.609 19.452 221.321 19.164C221.033 18.876 220.889 18.534 220.889 18.138C220.889 17.742 221.033 17.4 221.321 17.112C221.609 16.824 221.951 16.68 222.347 16.68C222.743 16.68 223.085 16.824 223.373 17.112C223.661 17.4 223.805 17.742 223.805 18.138C223.805 18.534 223.661 18.876 223.373 19.164ZM223.373 25.266C223.085 25.554 222.743 25.698 222.347 25.698C221.951 25.698 221.609 25.554 221.321 25.266C221.033 24.978 220.889 24.636 220.889 24.24C220.889 23.844 221.033 23.502 221.321 23.214C221.609 22.926 221.951 22.782 222.347 22.782C222.743 22.782 223.085 22.926 223.373 23.214C223.661 23.502 223.805 23.844 223.805 24.24C223.805 24.636 223.661 24.978 223.373 25.266Z" fill="#1E2E36"/>
<path fill-rule="evenodd" clip-rule="evenodd" d="M246.674 24.0686L246.673 24.0683L246.674 24.0678L246.674 24.0677L246.674 24.0678L255.947 15.6991C256.354 15.3379 255.858 15.1617 255.318 15.4894L243.873 22.7102L238.929 21.1671C237.861 20.8402 237.853 20.1066 239.168 19.5791L258.433 12.1506C259.313 11.7512 260.163 12.362 259.827 13.7087L256.546 29.1692C256.317 30.2678 255.653 30.5306 254.733 30.0231L249.736 26.3307L247.333 28.6666C247.326 28.6739 247.318 28.6813 247.311 28.6886C247.042 28.9501 246.82 29.1666 246.333 29.1666L246.674 24.0686Z" fill="#1E2E36"/>
<path fill-rule="evenodd" clip-rule="evenodd" d="M297.085 31.7596V20.8785H300.088L300.486 17.1288H297.085L297.09 15.2521C297.09 14.2741 297.183 13.7501 298.587 13.7501H300.465V10H297.461C293.853 10 292.583 11.819 292.583 14.878V17.1293H290.333V20.8789H292.583V31.7596H297.085Z" fill="#1E2E36"/>
<path fill-rule="evenodd" clip-rule="evenodd" d="M335.603 9.39776C336.741 9.34598 337.104 9.33331 340.001 9.33331H339.998C342.895 9.33331 343.258 9.34598 344.395 9.39776C345.531 9.44976 346.307 9.62954 346.987 9.89332C347.689 10.1655 348.282 10.53 348.876 11.1233C349.469 11.7162 349.833 12.3113 350.107 13.0129C350.369 13.6911 350.549 14.4663 350.602 15.6018C350.653 16.7396 350.667 17.1032 350.667 20.0001C350.667 22.897 350.653 23.2597 350.602 24.3975C350.549 25.5326 350.369 26.3079 350.107 26.9864C349.833 27.6877 349.469 28.2828 348.876 28.8757C348.283 29.4691 347.689 29.8344 346.987 30.1069C346.309 30.3706 345.533 30.5504 344.397 30.6024C343.259 30.6542 342.897 30.6669 340 30.6669C337.103 30.6669 336.74 30.6542 335.602 30.6024C334.467 30.5504 333.691 30.3706 333.012 30.1069C332.311 29.8344 331.716 29.4691 331.124 28.8757C330.53 28.2828 330.166 27.6877 329.893 26.9862C329.63 26.3079 329.45 25.5328 329.398 24.3972C329.346 23.2595 329.333 22.897 329.333 20.0001C329.333 17.1032 329.347 16.7394 329.398 15.6016C329.449 14.4665 329.629 13.6911 329.893 13.0127C330.166 12.3113 330.531 11.7162 331.124 11.1233C331.717 10.5302 332.312 10.1658 333.014 9.89332C333.692 9.62954 334.467 9.44976 335.603 9.39776ZM339.646 11.2555C339.43 11.2554 339.23 11.2553 339.044 11.2556V11.2529C337.056 11.2551 336.675 11.2685 335.691 11.3129C334.651 11.3607 334.086 11.534 333.71 11.6807C333.212 11.8745 332.857 12.1056 332.483 12.4789C332.11 12.8523 331.879 13.2078 331.685 13.7056C331.539 14.0816 331.365 14.6461 331.318 15.6861C331.267 16.8105 331.257 17.1465 331.257 19.995C331.257 22.8435 331.267 23.1813 331.318 24.3057C331.365 25.3457 331.539 25.9102 331.685 26.2857C331.879 26.7837 332.11 27.1384 332.483 27.5117C332.857 27.8851 333.212 28.1162 333.71 28.3095C334.086 28.4555 334.651 28.6293 335.691 28.6773C336.815 28.7284 337.153 28.7395 340.001 28.7395C342.849 28.7395 343.187 28.7284 344.311 28.6773C345.351 28.6298 345.916 28.4564 346.292 28.3098C346.79 28.1164 347.144 27.8853 347.518 27.512C347.891 27.1389 348.122 26.7844 348.316 26.2866C348.462 25.9111 348.636 25.3466 348.683 24.3066C348.734 23.1821 348.745 22.8444 348.745 19.9977C348.745 17.151 348.734 16.8132 348.683 15.6887C348.636 14.6487 348.462 14.0843 348.316 13.7087C348.122 13.2109 347.891 12.8554 347.518 12.482C347.144 12.1087 346.79 11.8776 346.292 11.6842C345.916 11.5382 345.351 11.3645 344.311 11.3169C343.187 11.2658 342.849 11.2556 340.001 11.2556L339.646 11.2555ZM334.523 19.9999C334.523 16.9748 336.976 14.5221 340.001 14.5221C343.026 14.5222 345.478 16.9749 345.478 19.9999C345.478 23.0251 343.026 25.4767 340.001 25.4767C336.976 25.4767 334.523 23.0251 334.523 19.9999ZM343.557 20.0002C343.557 18.0364 341.965 16.4446 340.001 16.4446C338.037 16.4446 336.445 18.0364 336.445 20.0002C336.445 21.9638 338.037 23.5558 340.001 23.5558C341.965 23.5558 343.557 21.9638 343.557 20.0002ZM344.415 14.3064C344.415 13.5995 344.988 13.0268 345.695 13.0268V13.0263C346.402 13.0263 346.975 13.5997 346.975 14.3064C346.975 15.013 346.402 15.5864 345.695 15.5864C344.988 15.5864 344.415 15.013 344.415 14.3064Z" fill="#1E2E36"/>
</svg>
